<?xml version="1.0" encoding="UTF-8" standalone="no"?>
<!DOCTYPE svg PUBLIC "-//W3C//DTD SVG 1.1//EN" "http://www.w3.org/Graphics/SVG/1.1/DTD/svg11.dtd">
<svg width="100%" height="100%" viewBox="0 0 96 96" version="1.1" xmlns="http://www.w3.org/2000/svg" xmlns:xlink="http://www.w3.org/1999/xlink" xml:space="preserve" xmlns:serif="http://www.serif.com/" style="fill-rule:evenodd;clip-rule:evenodd;stroke-linejoin:round;stroke-miterlimit:1.41421;">
    <path d="M87.8,19L23.8,19C21.6,19 19.8,20.8 19.8,23L19.8,37.5C20.9,37.2 22.2,37 23.4,37C24.2,37 25,37.1 25.8,37.2L25.8,25L85.8,25L85.8,63L51.9,63L46.2,69L87.8,69C90,69 91.8,67.2 91.8,65L91.8,23C91.8,20.8 90,19 87.8,19" style="fill:rgb(127,2,255);fill-rule:nonzero;"/>
    <path d="M23.5,58C28.2,58 32,54.2 32,49.5C32,44.8 28.2,41 23.5,41C18.8,41 15,44.8 15,49.5C14.9,54.2 18.8,58 23.5,58" style="fill:rgb(127,2,255);fill-rule:nonzero;"/>
    <path d="M56.2,48.1C54.9,46.1 52.3,45.6 50.3,46.8C49.9,47 49.7,47.4 49.5,47.6L34.9,62.8C33.5,62.1 32,61.5 30.5,61C28.2,60.6 25.8,60.1 23.5,60.1C21.2,60.1 18.8,60.5 16.5,61.2C13.1,62.1 10.1,63.8 7.6,65.9C7,66.5 6.5,67.4 6.3,68.2L4.2,77L34.1,77L34.1,76.9L42.6,67L55.7,53.2C56.9,52 57.3,49.7 56.2,48.1" style="fill:rgb(127,2,255);fill-rule:nonzero;"/>
</svg>
