<?xml version="1.0" encoding="UTF-8" standalone="no"?>
<!DOCTYPE svg PUBLIC "-//W3C//DTD SVG 1.1//EN" "http://www.w3.org/Graphics/SVG/1.1/DTD/svg11.dtd">
<svg width="100%" height="100%" viewBox="0 0 24 24" version="1.1" xmlns="http://www.w3.org/2000/svg" xmlns:xlink="http://www.w3.org/1999/xlink" xml:space="preserve" xmlns:serif="http://www.serif.com/" style="fill-rule:evenodd;clip-rule:evenodd;stroke-linejoin:round;stroke-miterlimit:1.41421;">
    <path d="M21.502,19.525C23.026,18.42 24,16.787 24,14.971C24,11.645 20.763,8.948 16.771,8.948C12.779,8.948 9.542,11.645 9.542,14.971C9.542,18.298 12.779,20.995 16.771,20.995C17.596,20.995 18.392,20.878 19.131,20.665L19.343,20.633C19.482,20.633 19.608,20.676 19.727,20.744L21.31,21.658L21.449,21.703C21.582,21.703 21.69,21.595 21.69,21.462L21.651,21.286L21.325,20.071L21.3,19.917C21.3,19.755 21.38,19.612 21.502,19.525ZM8.675,2.297C3.884,2.297 0,5.533 0,9.526C0,11.704 1.168,13.665 2.997,14.99C3.144,15.094 3.24,15.266 3.24,15.461L3.21,15.645L2.819,17.103L2.772,17.314C2.772,17.474 2.902,17.604 3.061,17.604L3.229,17.55L5.128,16.453C5.27,16.371 5.421,16.32 5.588,16.32L5.843,16.358C6.729,16.613 7.685,16.755 8.675,16.755L9.151,16.743C8.963,16.179 8.86,15.585 8.86,14.972C8.86,11.331 12.402,8.379 16.771,8.379L17.242,8.391C16.589,4.938 13.002,2.297 8.675,2.297ZM14.361,14.008C13.829,14.008 13.398,13.576 13.398,13.044C13.398,12.511 13.829,12.08 14.361,12.08C14.894,12.08 15.325,12.511 15.325,13.044C15.325,13.576 14.894,14.008 14.361,14.008ZM19.181,14.008C18.648,14.008 18.217,13.576 18.217,13.044C18.217,12.511 18.648,12.08 19.181,12.08C19.713,12.08 20.144,12.511 20.144,13.044C20.144,13.576 19.713,14.008 19.181,14.008ZM5.783,8.369C5.144,8.369 4.627,7.851 4.627,7.213C4.627,6.574 5.144,6.056 5.783,6.056C6.422,6.056 6.94,6.574 6.94,7.213C6.94,7.851 6.422,8.369 5.783,8.369ZM11.566,8.369C10.927,8.369 10.41,7.851 10.41,7.213C10.41,6.574 10.927,6.056 11.566,6.056C12.205,6.056 12.723,6.574 12.723,7.213C12.723,7.851 12.205,8.369 11.566,8.369Z" style="fill:rgb(127,2,255);"/>
</svg>
